<?xml version="1.0" encoding="UTF-8"?>
<svg version="1.1" xmlns="http://www.w3.org/2000/svg" width="4096" height="2160">
<path d="M0 0 C1351.68 0 2703.36 0 4096 0 C4096 712.8 4096 1425.6 4096 2160 C2744.32 2160 1392.64 2160 0 2160 C0 1447.2 0 734.4 0 0 Z " fill="#FEFEFE" transform="translate(0,0)"/>
<path d="M0 0 C122.76 0 245.52 0 372 0 C372 35.31 372 70.62 372 107 C513.57 107 655.14 107 801 107 C801 72.35 801 37.7 801 2 C873.93 2 946.86 2 1022 2 C1022 36.65 1022 71.3 1022 107 C1028.6 107 1035.2 107 1042 107 C1042 95.12 1042 83.24 1042 71 C1114.93 71 1187.86 71 1263 71 C1263 82.88 1263 94.76 1263 107 C1375.86 107 1488.72 107 1605 107 C1605 110.3 1605 113.6 1605 117 C1492.14 117 1379.28 117 1263 117 C1263 163.2 1263 209.4 1263 257 C1375.86 257 1488.72 257 1605 257 C1605 260.3 1605 263.6 1605 267 C1492.14 267 1379.28 267 1263 267 C1263 313.2 1263 359.4 1263 407 C1375.86 407 1488.72 407 1605 407 C1605 410.3 1605 413.6 1605 417 C1492.14 417 1379.28 417 1263 417 C1263 463.2 1263 509.4 1263 557 C1375.86 557 1488.72 557 1605 557 C1605 560.3 1605 563.6 1605 567 C1492.14 567 1379.28 567 1263 567 C1263 613.2 1263 659.4 1263 707 C1375.86 707 1488.72 707 1605 707 C1605 710.3 1605 713.6 1605 717 C1492.14 717 1379.28 717 1263 717 C1263 751.65 1263 786.3 1263 822 C1190.07 822 1117.14 822 1042 822 C1042 787.35 1042 752.7 1042 717 C1035.07 717 1028.14 717 1021 717 C1021 751.65 1021 786.3 1021 822 C948.4 822 875.8 822 801 822 C801 787.35 801 752.7 801 717 C659.1 717 517.2 717 371 717 C371 752.64 371 788.28 371 825 C248.57 825 126.14 825 0 825 C0 789.69 0 754.38 0 718 C-143.55 718 -287.1 718 -435 718 C-435 950.32 -435 1182.64 -435 1422 C-507.6 1422 -580.2 1422 -655 1422 C-655 1189.68 -655 957.36 -655 718 C-660.28 718 -665.56 718 -671 718 C-671 752.32 -671 786.64 -671 822 C-743.6 822 -816.2 822 -891 822 C-891 787.68 -891 753.36 -891 718 C-1065.24 718 -1239.48 718 -1419 718 C-1419 714.37 -1419 710.74 -1419 707 C-1244.76 707 -1070.52 707 -891 707 C-891 672.68 -891 638.36 -891 603 C-818.4 603 -745.8 603 -671 603 C-671 637.32 -671 671.64 -671 707 C-665.72 707 -660.44 707 -655 707 C-655 661.13 -655 615.26 -655 568 C-738.16 568 -821.32 568 -907 568 C-907 603.31 -907 638.62 -907 675 C-979.6 675 -1052.2 675 -1127 675 C-1127 639.69 -1127 604.38 -1127 568 C-1223.36 568 -1319.72 568 -1419 568 C-1419 564.37 -1419 560.74 -1419 557 C-1322.64 557 -1226.28 557 -1127 557 C-1127 511.13 -1127 465.26 -1127 418 C-1223.36 418 -1319.72 418 -1419 418 C-1419 414.37 -1419 410.74 -1419 407 C-1322.64 407 -1226.28 407 -1127 407 C-1127 361.13 -1127 315.26 -1127 268 C-1223.36 268 -1319.72 268 -1419 268 C-1419 264.37 -1419 260.74 -1419 257 C-1322.64 257 -1226.28 257 -1127 257 C-1127 223.34 -1127 189.68 -1127 155 C-1054.4 155 -981.8 155 -907 155 C-907 188.66 -907 222.32 -907 257 C-823.84 257 -740.68 257 -655 257 C-655 211.13 -655 165.26 -655 118 C-660.28 118 -665.56 118 -671 118 C-671 152.32 -671 186.64 -671 222 C-743.6 222 -816.2 222 -891 222 C-891 187.68 -891 153.36 -891 118 C-1065.24 118 -1239.48 118 -1419 118 C-1419 114.37 -1419 110.74 -1419 107 C-1244.76 107 -1070.52 107 -891 107 C-891 72.68 -891 38.36 -891 3 C-818.4 3 -745.8 3 -671 3 C-671 37.32 -671 71.64 -671 107 C-665.72 107 -660.44 107 -655 107 C-655 72.68 -655 38.36 -655 3 C-582.4 3 -509.8 3 -435 3 C-435 37.32 -435 71.64 -435 107 C-291.45 107 -147.9 107 0 107 C0 71.69 0 36.38 0 0 Z " fill="#E06C61" transform="translate(1955,412)"/>
<path d="M0 0 C72.6 0 145.2 0 220 0 C220 34.32 220 68.64 220 104 C225.28 104 230.56 104 236 104 C236 69.68 236 35.36 236 0 C308.6 0 381.2 0 456 0 C456 34.32 456 68.64 456 104 C599.55 104 743.1 104 891 104 C891 104.33 891 104.66 891 105 C747.45 105 603.9 105 456 105 C456 107.97 456 110.94 456 114 C599.55 114 743.1 114 891 114 C891 114.33 891 114.66 891 115 C747.45 115 603.9 115 456 115 C456 160.87 456 206.74 456 254 C521.01 254 586.02 254 653 254 C653 220.34 653 186.68 653 152 C725.93 152 798.86 152 874 152 C874 185.66 874 219.32 874 254 C1064.08 254 1254.16 254 1450 254 C1450 219.35 1450 184.7 1450 149 C1523.26 149 1596.52 149 1672 149 C1672 183.65 1672 218.3 1672 254 C1758.13 254 1844.26 254 1933 254 C1933 257.3 1933 260.6 1933 264 C1846.54 264 1760.08 264 1671 264 C1671 226.38 1671 188.76 1671 150 C1598.4 150 1525.8 150 1451 150 C1451 187.62 1451 225.24 1451 264 C1260.59 264 1070.18 264 874 264 C874 310.53 874 357.06 874 405 C1064.41 405 1254.82 405 1451 405 C1451 407.97 1451 410.94 1451 414 C1260.59 414 1070.18 414 874 414 C874 460.53 874 507.06 874 555 C1064.41 555 1254.82 555 1451 555 C1451 557.97 1451 560.94 1451 564 C1260.59 564 1070.18 564 874 564 C874 599.64 874 635.28 874 672 C801.07 672 728.14 672 653 672 C653 636.69 653 601.38 653 565 C587.99 565 522.98 565 456 565 C456 610.87 456 656.74 456 704 C599.55 704 743.1 704 891 704 C891 704.33 891 704.66 891 705 C747.45 705 603.9 705 456 705 C456 707.97 456 710.94 456 714 C599.55 714 743.1 714 891 714 C891 714.33 891 714.66 891 715 C747.45 715 603.9 715 456 715 C456 947.32 456 1179.64 456 1419 C383.4 1419 310.8 1419 236 1419 C236 1186.68 236 954.36 236 715 C230.72 715 225.44 715 220 715 C220 749.32 220 783.64 220 819 C147.4 819 74.8 819 0 819 C0 784.68 0 750.36 0 715 C-174.24 715 -348.48 715 -528 715 C-528 711.37 -528 707.74 -528 704 C-353.76 704 -179.52 704 0 704 C0 669.68 0 635.36 0 600 C72.6 600 145.2 600 220 600 C220 634.32 220 668.64 220 704 C225.28 704 230.56 704 236 704 C236 658.13 236 612.26 236 565 C152.84 565 69.68 565 -16 565 C-16 600.31 -16 635.62 -16 672 C-88.6 672 -161.2 672 -236 672 C-236 636.69 -236 601.38 -236 565 C-332.36 565 -428.72 565 -528 565 C-528 561.37 -528 557.74 -528 554 C-431.64 554 -335.28 554 -236 554 C-236 508.13 -236 462.26 -236 415 C-332.36 415 -428.72 415 -528 415 C-528 411.37 -528 407.74 -528 404 C-431.64 404 -335.28 404 -236 404 C-236 358.13 -236 312.26 -236 265 C-332.36 265 -428.72 265 -528 265 C-528 261.37 -528 257.74 -528 254 C-431.64 254 -335.28 254 -236 254 C-236 220.34 -236 186.68 -236 152 C-163.4 152 -90.8 152 -16 152 C-16 185.66 -16 219.32 -16 254 C67.16 254 150.32 254 236 254 C236 208.13 236 162.26 236 115 C230.72 115 225.44 115 220 115 C220 149.32 220 183.64 220 219 C147.4 219 74.8 219 0 219 C0 184.68 0 150.36 0 115 C-174.24 115 -348.48 115 -528 115 C-528 111.37 -528 107.74 -528 104 C-353.76 104 -179.52 104 0 104 C0 69.68 0 35.36 0 0 Z " fill="#F0998F" transform="translate(1064,415)"/>
<path d="M0 0 C59.4 0 118.8 0 180 0 C180 455.07 180 910.14 180 1379 C120.6 1379 61.2 1379 0 1379 C0 923.93 0 468.86 0 0 Z " fill="#CA2D20" transform="translate(1320,435)"/>
<path d="M0 0 C73.26 0 146.52 0 222 0 C222 34.65 222 69.3 222 105 C308.13 105 394.26 105 483 105 C483 108.3 483 111.6 483 115 C396.54 115 310.08 115 221 115 C221 77.38 221 39.76 221 1 C148.4 1 75.8 1 1 1 C1 38.62 1 76.24 1 115 C-189.41 115 -379.82 115 -576 115 C-576 161.53 -576 208.06 -576 256 C-385.59 256 -195.18 256 1 256 C1 258.97 1 261.94 1 265 C-189.41 265 -379.82 265 -576 265 C-576 311.53 -576 358.06 -576 406 C-385.59 406 -195.18 406 1 406 C1 408.97 1 411.94 1 415 C-189.41 415 -379.82 415 -576 415 C-576 450.64 -576 486.28 -576 523 C-648.6 523 -721.2 523 -796 523 C-796 487.36 -796 451.72 -796 415 C-861.34 415 -926.68 415 -994 415 C-994 412.03 -994 409.06 -994 406 C-928.99 405.67 -863.98 405.34 -797 405 C-796.67 358.8 -796.34 312.6 -796 265 C-861.34 265 -926.68 265 -994 265 C-994 262.03 -994 259.06 -994 256 C-928.99 255.67 -863.98 255.34 -797 255 C-796.67 208.8 -796.34 162.6 -796 115 C-861.34 115 -926.68 115 -994 115 C-994 112.03 -994 109.06 -994 106 C-928.99 106 -863.98 106 -797 106 C-797 72.01 -797 38.02 -797 3 C-724.07 3 -651.14 3 -576 3 C-576 36.66 -576 70.32 -576 105 C-385.92 105 -195.84 105 0 105 C0 70.35 0 35.7 0 0 Z " fill="#EC6D56" transform="translate(2514,564)"/>
<path d="M0 0 C59.73 0 119.46 0 181 0 C181 234.96 181 469.92 181 712 C121.27 712 61.54 712 0 712 C0 477.04 0 242.08 0 0 Z " fill="#F09A90" transform="translate(3017,503)"/>
<path d="M0 0 C141.9 0 283.8 0 430 0 C430 34.65 430 69.3 430 105 C502.6 105 575.2 105 650 105 C650 70.35 650 35.7 650 0 C656.93 0 663.86 0 671 0 C671 46.2 671 92.4 671 140 C584.87 140 498.74 140 410 140 C410 105.35 410 70.7 410 35 C336.74 35 263.48 35 188 35 C188 69.65 188 104.3 188 140 C-2.08 140 -192.16 140 -388 140 C-388 106.34 -388 72.68 -388 38 C-460.93 38 -533.86 38 -609 38 C-609 71.66 -609 105.32 -609 140 C-674.01 140 -739.02 140 -806 140 C-806 94.13 -806 48.26 -806 1 C-662.45 1 -518.9 1 -371 1 C-371 34.66 -371 68.32 -371 103 C-248.57 103 -126.14 103 0 103 C0 69.01 0 35.02 0 0 Z " fill="#FEFEFE" transform="translate(2326,529)"/>
<path d="M0 0 C190.41 0 380.82 0 577 0 C577 34.65 577 69.3 577 105 C649.6 105 722.2 105 797 105 C797 70.35 797 35.7 797 0 C883.46 0 969.92 0 1059 0 C1059 46.2 1059 92.4 1059 140 C1052.4 140 1045.8 140 1039 140 C1039 105.35 1039 70.7 1039 35 C966.07 35 893.14 35 818 35 C818 69.65 818 104.3 818 140 C676.43 140 534.86 140 389 140 C389 106.34 389 72.68 389 38 C266.24 38 143.48 38 17 38 C17 71.66 17 105.32 17 140 C-126.55 140 -270.1 140 -418 140 C-418 94.13 -418 48.26 -418 1 C-352.99 1 -287.98 1 -221 1 C-221 36.31 -221 71.62 -221 108 C-148.07 108 -75.14 108 0 108 C0 72.36 0 36.72 0 0 Z " fill="#FEFDFD" transform="translate(1938,979)"/>
<path d="M0 0 C59.4 0 118.8 0 180 0 C180 158.4 180 316.8 180 480 C120.6 480 61.2 480 0 480 C0 321.6 0 163.2 0 0 Z " fill="#CA2D20" transform="translate(848,587)"/>
<path d="M0 0 C190.41 0 380.82 0 577 0 C577 46.53 577 93.06 577 141 C386.59 141 196.18 141 0 141 C0 94.47 0 47.94 0 0 Z " fill="#FEFDFD" transform="translate(1938,829)"/>
<path d="M0 0 C190.41 0 380.82 0 577 0 C577 46.53 577 93.06 577 141 C386.59 141 196.18 141 0 141 C0 94.47 0 47.94 0 0 Z " fill="#FEFDFD" transform="translate(1938,679)"/>
<path d="M0 0 C109.23 0 218.46 0 331 0 C331 59.4 331 118.8 331 180 C221.77 180 112.54 180 0 180 C0 120.6 0 61.2 0 0 Z " fill="#EC6D56" transform="translate(1975,1037)"/>
<path d="M0 0 C109.23 0 218.46 0 331 0 C331 59.4 331 118.8 331 180 C221.77 180 112.54 180 0 180 C0 120.6 0 61.2 0 0 Z " fill="#EC6D56" transform="translate(1975,432)"/>
<path d="M0 0 C73.26 0 146.52 0 222 0 C222 34.65 222 69.3 222 105 C308.13 105 394.26 105 483 105 C483 108.3 483 111.6 483 115 C396.54 115 310.08 115 221 115 C221 77.38 221 39.76 221 1 C148.4 1 75.8 1 1 1 C1 38.62 1 76.24 1 115 C-189.41 115 -379.82 115 -576 115 C-576 161.53 -576 208.06 -576 256 C-385.59 256 -195.18 256 1 256 C1 258.97 1 261.94 1 265 C-189.41 265 -379.82 265 -576 265 C-576 311.53 -576 358.06 -576 406 C-385.59 406 -195.18 406 1 406 C1 408.97 1 411.94 1 415 C-189.41 415 -379.82 415 -576 415 C-576 450.64 -576 486.28 -576 523 C-648.6 523 -721.2 523 -796 523 C-796 487.36 -796 451.72 -796 415 C-861.34 415 -926.68 415 -994 415 C-994 412.03 -994 409.06 -994 406 C-928.99 405.67 -863.98 405.34 -797 405 C-796.67 358.8 -796.34 312.6 -796 265 C-861.34 265 -926.68 265 -994 265 C-994 262.03 -994 259.06 -994 256 C-928.99 255.67 -863.98 255.34 -797 255 C-796.67 208.8 -796.34 162.6 -796 115 C-861.34 115 -926.68 115 -994 115 C-994 112.03 -994 109.06 -994 106 C-928.99 106 -863.98 106 -797 106 C-797 72.01 -797 38.02 -797 3 C-724.07 3 -651.14 3 -576 3 C-576 36.66 -576 70.32 -576 105 C-385.92 105 -195.84 105 0 105 C0 70.35 0 35.7 0 0 Z M-776 23 C-776 181.4 -776 339.8 -776 503 C-716.6 503 -657.2 503 -596 503 C-596 344.6 -596 186.2 -596 23 C-655.4 23 -714.8 23 -776 23 Z " fill="#DA3D29" transform="translate(2514,564)"/>
<path d="M0 0 C72.6 0 145.2 0 220 0 C220 171.6 220 343.2 220 520 C147.4 520 74.8 520 0 520 C0 484.69 0 449.38 0 413 C-96.36 413 -192.72 413 -292 413 C-292 409.37 -292 405.74 -292 402 C-195.64 402 -99.28 402 0 402 C0 356.13 0 310.26 0 263 C-96.36 263 -192.72 263 -292 263 C-292 259.37 -292 255.74 -292 252 C-195.64 252 -99.28 252 0 252 C0 206.13 0 160.26 0 113 C-96.36 113 -192.72 113 -292 113 C-292 109.37 -292 105.74 -292 102 C-195.64 102 -99.28 102 0 102 C0 68.34 0 34.68 0 0 Z M20 20 C20 178.4 20 336.8 20 500 C79.4 500 138.8 500 200 500 C200 341.6 200 183.2 200 20 C140.6 20 81.2 20 20 20 Z " fill="#F09A90" transform="translate(828,567)"/>
<path d="M0 0 C86.46 0 172.92 0 262 0 C262 46.53 262 93.06 262 141 C175.54 141 89.08 141 0 141 C0 94.47 0 47.94 0 0 Z " fill="#FEFDFD" transform="translate(2735,829)"/>
<path d="M0 0 C86.46 0 172.92 0 262 0 C262 46.53 262 93.06 262 141 C175.54 141 89.08 141 0 141 C0 94.47 0 47.94 0 0 Z " fill="#FEFDFD" transform="translate(2735,679)"/>
<path d="M0 0 C83.16 0 166.32 0 252 0 C252 45.87 252 91.74 252 139 C168.84 139 85.68 139 0 139 C0 93.13 0 47.26 0 0 Z " fill="#FEFEFE" transform="translate(1048,830)"/>
<path d="M0 0 C83.16 0 166.32 0 252 0 C252 45.87 252 91.74 252 139 C168.84 139 85.68 139 0 139 C0 93.13 0 47.26 0 0 Z " fill="#FEFEFE" transform="translate(1048,680)"/>
<path d="M0 0 C59.4 0 118.8 0 180 0 C180 59.07 180 118.14 180 179 C120.6 179 61.2 179 0 179 C0 119.93 0 60.86 0 0 Z " fill="#F19B91" transform="translate(2776,1035)"/>
<path d="M0 0 C59.4 0 118.8 0 180 0 C180 59.07 180 118.14 180 179 C120.6 179 61.2 179 0 179 C0 119.93 0 60.86 0 0 Z " fill="#CA2D20" transform="translate(1084,1035)"/>
<path d="M0 0 C59.4 0 118.8 0 180 0 C180 59.07 180 118.14 180 179 C120.6 179 61.2 179 0 179 C0 119.93 0 60.86 0 0 Z " fill="#F19B91" transform="translate(2776,435)"/>
<path d="M0 0 C59.4 0 118.8 0 180 0 C180 59.07 180 118.14 180 179 C120.6 179 61.2 179 0 179 C0 119.93 0 60.86 0 0 Z " fill="#CA2D20" transform="translate(1084,435)"/>
<path d="M0 0 C122.76 0 245.52 0 372 0 C372 35.31 372 70.62 372 107 C513.57 107 655.14 107 801 107 C801 110.3 801 113.6 801 117 C659.1 117 517.2 117 371 117 C371 150.99 371 184.98 371 220 C248.57 220 126.14 220 0 220 C0 186.01 0 152.02 0 117 C-143.55 117 -287.1 117 -435 117 C-435 114.03 -435 111.06 -435 108 C-291.45 108 -147.9 108 0 108 C0 72.36 0 36.72 0 0 Z M20 20 C20 79.4 20 138.8 20 200 C129.23 200 238.46 200 351 200 C351 140.6 351 81.2 351 20 C241.77 20 132.54 20 20 20 Z " fill="#DA3C28" transform="translate(1955,412)"/>
<path d="M0 0 C122.76 0 245.52 0 372 0 C372 33.66 372 67.32 372 102 C513.57 102 655.14 102 801 102 C801 105.3 801 108.6 801 112 C659.1 112 517.2 112 371 112 C371 147.64 371 183.28 371 220 C248.57 220 126.14 220 0 220 C0 184.36 0 148.72 0 112 C-143.55 112 -287.1 112 -435 112 C-435 109.03 -435 106.06 -435 103 C-291.45 103 -147.9 103 0 103 C0 69.01 0 35.02 0 0 Z M20 20 C20 79.4 20 138.8 20 200 C129.23 200 238.46 200 351 200 C351 140.6 351 81.2 351 20 C241.77 20 132.54 20 20 20 Z " fill="#DA3C28" transform="translate(1955,1017)"/>
<path d="M0 0 C65.01 0 130.02 0 197 0 C197 45.87 197 91.74 197 139 C131.99 139 66.98 139 0 139 C0 93.13 0 47.26 0 0 Z " fill="#FEFEFE" transform="translate(1520,830)"/>
<path d="M0 0 C65.01 0 130.02 0 197 0 C197 45.87 197 91.74 197 139 C131.99 139 66.98 139 0 139 C0 93.13 0 47.26 0 0 Z " fill="#FEFEFE" transform="translate(1520,680)"/>
<path d="M0 0 C2.51299025 2.27659724 3.97979671 4.54529012 5.53125 7.55078125 C6.00643066 8.46569336 6.48161133 9.38060547 6.97119141 10.32324219 C7.47569824 11.30969727 7.98020508 12.29615234 8.5 13.3125 C9.02899902 14.33633789 9.55799805 15.36017578 10.10302734 16.41503906 C14.13784973 24.24910886 18.08135618 32.12795449 22.00073242 40.02026367 C24.86013454 45.76519754 27.79838486 51.45988656 30.8125 57.125 C35.00960244 65.01684244 39.02073542 72.99677942 43 81 C46.91713455 88.87815711 50.86221631 96.73475928 55 104.5 C59.46032993 112.8705525 63.69359807 121.35018417 67.91601562 129.84228516 C71.89921278 137.84919378 75.963727 145.80263113 80.16967773 153.69482422 C84.24234507 161.37669747 88.10215813 169.16426586 91.96929932 176.9508667 C96.02101035 185.1068655 100.14139842 193.21327919 104.51196289 201.20361328 C107 205.79534192 107 205.79534192 107 208 C36.71 208 -33.58 208 -106 208 C-95.67040717 186.1930818 -95.67040717 186.1930818 -92.09765625 179.31640625 C-91.69335892 178.53142258 -91.28906158 177.7464389 -90.87251282 176.93766785 C-89.60516512 174.47789745 -88.33383946 172.02020912 -87.0625 169.5625 C-85.29394273 166.13234907 -83.52766582 162.70102659 -81.76171875 159.26953125 C-81.33892639 158.4485495 -80.91613403 157.62756775 -80.48052979 156.78170776 C-77.39966313 150.79360778 -74.36442019 144.78432701 -71.375 138.75 C-68.03303537 132.00816719 -64.55998691 125.34658074 -61.02880859 118.70214844 C-57.2356395 111.52635813 -53.61337164 104.26737013 -50 97 C-45.71243936 88.37682601 -41.35704015 79.80004534 -36.828125 71.30078125 C-33.09650399 64.26158707 -29.54725456 57.1332116 -26 50 C-20.85979815 39.66742112 -15.6127102 29.40195467 -10.18212891 19.21875 C-8.48389804 16.03132289 -6.79677683 12.83804633 -5.10864258 9.64526367 C-3.40782015 6.42908353 -1.70397799 3.2145092 0 0 Z " fill="#CA2D20" transform="translate(3106,263)"/>
<path d="M0 0 C72.6 0 145.2 0 220 0 C220 34.32 220 68.64 220 104 C224.95 104 229.9 104 235 104 C235 104.33 235 104.66 235 105 C230.05 105 225.1 105 220 105 C220 107.97 220 110.94 220 114 C224.95 114 229.9 114 235 114 C235 114.33 235 114.66 235 115 C230.05 115 225.1 115 220 115 C220 149.32 220 183.64 220 219 C147.4 219 74.8 219 0 219 C0 184.68 0 150.36 0 115 C-174.24 115 -348.48 115 -528 115 C-528 111.37 -528 107.74 -528 104 C-353.76 104 -179.52 104 0 104 C0 69.68 0 35.36 0 0 Z M20 20 C20 79.07 20 138.14 20 199 C79.4 199 138.8 199 200 199 C200 139.93 200 80.86 200 20 C140.6 20 81.2 20 20 20 Z " fill="#F0998F" transform="translate(1064,415)"/>
<path d="M0 0 C72.6 0 145.2 0 220 0 C220 72.27 220 144.54 220 219 C147.4 219 74.8 219 0 219 C0 184.68 0 150.36 0 115 C-174.24 115 -348.48 115 -528 115 C-528 111.37 -528 107.74 -528 104 C-353.76 104 -179.52 104 0 104 C0 69.68 0 35.36 0 0 Z M20 20 C20 79.07 20 138.14 20 199 C79.4 199 138.8 199 200 199 C200 139.93 200 80.86 200 20 C140.6 20 81.2 20 20 20 Z " fill="#F0998F" transform="translate(1064,1015)"/>
<path d="M0 0 C72.6 0 145.2 0 220 0 C220.185625 16.644375 220.37125 33.28875 220.5625 50.4375 C220.62381104 55.43318115 220.68512207 60.4288623 220.74829102 65.57592773 C221.25340872 116.74954442 220.48775767 167.78544437 220 219 C147.4 219 74.8 219 0 219 C0 146.73 0 74.46 0 0 Z M20 20 C20 79.07 20 138.14 20 199 C79.4 199 138.8 199 200 199 C200 139.93 200 80.86 200 20 C140.6 20 81.2 20 20 20 Z " fill="#CA2E21" transform="translate(2756,1015)"/>
<path d="M0 0 C72.6 0 145.2 0 220 0 C220.185625 16.644375 220.37125 33.28875 220.5625 50.4375 C220.62381104 55.43318115 220.68512207 60.4288623 220.74829102 65.57592773 C221.25340872 116.74954442 220.48775767 167.78544437 220 219 C147.4 219 74.8 219 0 219 C0 146.73 0 74.46 0 0 Z M20 20 C20 79.07 20 138.14 20 199 C79.4 199 138.8 199 200 199 C200 139.93 200 80.86 200 20 C140.6 20 81.2 20 20 20 Z " fill="#CA2E21" transform="translate(2756,415)"/>
<path d="M0 0 C2.19140625 1.11328125 2.19140625 1.11328125 4.25 2.375 C5.02214844 2.82230469 5.79429687 3.26960937 6.58984375 3.73046875 C18.06900409 10.8548062 24.84996605 19.97452286 28.51953125 32.9453125 C31.32035535 46.09570587 28.12616468 57.89184885 20.9296875 69.0625 C13.990987 78.61531557 4.65014378 84.30788515 -6.75 87.375 C-21.61701999 88.88603844 -33.73983999 86.61219952 -45.75 77.375 C-53.65105398 70.26541602 -60.10844923 60.27665988 -60.88696289 49.47460938 C-61.58299949 34.78236703 -59.41296302 23.9626189 -49.75 12.375 C-37.7710076 -0.6647671 -16.90120773 -6.47566147 0 0 Z " fill="#FEFDFC" transform="translate(3122.75,631.625)"/>
<path d="M0 0 C174.24 0 348.48 0 528 0 C528 2.97 528 5.94 528 9 C353.76 9 179.52 9 0 9 C0 6.03 0 3.06 0 0 Z " fill="#DA3B26" transform="translate(536,1120)"/>
<path d="M0 0 C174.24 0 348.48 0 528 0 C528 2.97 528 5.94 528 9 C353.76 9 179.52 9 0 9 C0 6.03 0 3.06 0 0 Z " fill="#DA3B26" transform="translate(536,520)"/>
<path d="M0 0 C112.86 0 225.72 0 342 0 C342 3.3 342 6.6 342 10 C229.14 10 116.28 10 0 10 C0 6.7 0 3.4 0 0 Z " fill="#DB4430" transform="translate(3218,1119)"/>
<path d="M0 0 C112.86 0 225.72 0 342 0 C342 3.3 342 6.6 342 10 C229.14 10 116.28 10 0 10 C0 6.7 0 3.4 0 0 Z " fill="#DB4430" transform="translate(3218,969)"/>
<path d="M0 0 C112.86 0 225.72 0 342 0 C342 3.3 342 6.6 342 10 C229.14 10 116.28 10 0 10 C0 6.7 0 3.4 0 0 Z " fill="#DB4430" transform="translate(3218,819)"/>
<path d="M0 0 C112.86 0 225.72 0 342 0 C342 3.3 342 6.6 342 10 C229.14 10 116.28 10 0 10 C0 6.7 0 3.4 0 0 Z " fill="#DB4430" transform="translate(3218,669)"/>
<path d="M0 0 C112.86 0 225.72 0 342 0 C342 3.3 342 6.6 342 10 C229.14 10 116.28 10 0 10 C0 6.7 0 3.4 0 0 Z " fill="#DB4430" transform="translate(3218,519)"/>
<path d="M0 0 C13.53630147 8.87931702 22.54347572 21.06370983 26.515625 36.796875 C29.14692729 51.17616809 26.42328074 64.798231 18.9921875 77.30078125 C12.35228672 86.83757178 4.70762801 93.54185186 -5.8203125 98.42578125 C-6.84705078 98.91691406 -6.84705078 98.91691406 -7.89453125 99.41796875 C-18.50607849 104.25186229 -34.95898399 104.64387077 -45.9453125 100.86328125 C-47.59690623 100.10630079 -49.22281025 99.29109497 -50.8203125 98.42578125 C-51.8103125 97.92820312 -52.8003125 97.430625 -53.8203125 96.91796875 C-67.47295208 89.57967498 -75.976862 78.89512754 -81.2578125 64.36328125 C-85.57621647 48.79085482 -83.25068748 33.25999197 -75.6328125 19.17578125 C-67.969302 6.81633239 -56.00980964 -2.04674808 -41.98706055 -6.10473633 C-27.94544384 -9.14721846 -12.44040752 -6.94388398 0 0 Z M-63.0078125 18.61328125 C-72.40967614 30.16864438 -73.77845114 42.1634884 -72.8203125 56.42578125 C-72.22056223 59.7023581 -71.2619224 62.43600768 -69.8203125 65.42578125 C-69.56507813 66.07160156 -69.30984375 66.71742188 -69.046875 67.3828125 C-64.41891871 78.14599524 -55.35371376 85.73835111 -44.8203125 90.42578125 C-33.1079208 94.31752267 -19.81504791 93.94804007 -8.58203125 88.90234375 C3.00224647 82.70876952 10.54170706 73.66854744 15.1796875 61.42578125 C15.6128125 60.31203125 16.0459375 59.19828125 16.4921875 58.05078125 C18.84835687 45.62734273 16.96784169 33.62180021 9.8671875 23.05078125 C8.66685565 21.48655932 7.43902921 19.94289867 6.1796875 18.42578125 C5.66792969 17.79027344 5.15617187 17.15476562 4.62890625 16.5 C-1.37829511 9.77730071 -10.91563645 4.0334789 -20.01171875 3.23291016 C-37.72847102 2.63092002 -50.41785738 5.24255372 -63.0078125 18.61328125 Z " fill="#CB3024" transform="translate(3134.8203125,626.57421875)"/>
<path d="M0 0 C96.36 0 192.72 0 292 0 C292 2.97 292 5.94 292 9 C195.64 9 99.28 9 0 9 C0 6.03 0 3.06 0 0 Z " fill="#DA3B26" transform="translate(536,970)"/>
<path d="M0 0 C96.36 0 192.72 0 292 0 C292 2.97 292 5.94 292 9 C195.64 9 99.28 9 0 9 C0 6.03 0 3.06 0 0 Z " fill="#DA3B26" transform="translate(536,820)"/>
<path d="M0 0 C96.36 0 192.72 0 292 0 C292 2.97 292 5.94 292 9 C195.64 9 99.28 9 0 9 C0 6.03 0 3.06 0 0 Z " fill="#DA3B26" transform="translate(536,670)"/>
<path d="M0 0 C86.46 0 172.92 0 262 0 C262 2.97 262 5.94 262 9 C175.54 9 89.08 9 0 9 C0 6.03 0 3.06 0 0 Z " fill="#D93A25" transform="translate(2735,970)"/>
<path d="M0 0 C86.46 0 172.92 0 262 0 C262 2.97 262 5.94 262 9 C175.54 9 89.08 9 0 9 C0 6.03 0 3.06 0 0 Z " fill="#D93A25" transform="translate(2735,820)"/>
<path d="M0 0 C83.16 0 166.32 0 252 0 C252 2.97 252 5.94 252 9 C168.84 9 85.68 9 0 9 C0 6.03 0 3.06 0 0 Z " fill="#DA3B26" transform="translate(1048,970)"/>
<path d="M0 0 C83.16 0 166.32 0 252 0 C252 2.97 252 5.94 252 9 C168.84 9 85.68 9 0 9 C0 6.03 0 3.06 0 0 Z " fill="#DA3B26" transform="translate(1048,820)"/>
<path d="M0 0 C83.16 0 166.32 0 252 0 C252 2.97 252 5.94 252 9 C168.84 9 85.68 9 0 9 C0 6.03 0 3.06 0 0 Z " fill="#DA3B26" transform="translate(1048,670)"/>
<path d="M0 0 C4.20044845 1.61555709 6.70347838 3.12617769 9 7 C9.38095093 9.87705994 9.38095093 9.87705994 9.38818359 13.24975586 C9.39764008 14.5146434 9.40709656 15.77953094 9.4168396 17.08274841 C9.41146915 18.46011671 9.40531601 19.83748215 9.3984375 21.21484375 C9.40045942 22.632046 9.40337185 24.04924723 9.40713501 25.46644592 C9.41155428 28.43468139 9.40514137 31.40264571 9.39111328 34.37084961 C9.37403687 38.16841995 9.38385469 41.96535346 9.40183067 45.76290035 C9.4126928 48.68922181 9.40921085 51.61539336 9.4014473 54.54171944 C9.39945117 55.9415043 9.40188388 57.34130293 9.40888596 58.7410717 C9.41653777 60.70099488 9.40279954 62.66096599 9.38818359 64.62084961 C9.38579681 65.73463486 9.38341003 66.8484201 9.38095093 67.99595642 C8.94904079 71.40184618 8.03856157 73.25993597 6 76 C1.64013171 78.87354956 -1.81800645 79.74028479 -7 79 C-10.75574837 76.83421376 -13.43266022 74.05600525 -15 70 C-15.28088379 67.21232605 -15.28088379 67.21232605 -15.32226562 63.96557617 C-15.34148071 62.74718552 -15.3606958 61.52879486 -15.38049316 60.27348328 C-15.38899292 58.95991348 -15.39749268 57.64634369 -15.40625 56.29296875 C-15.41776446 54.92539977 -15.42927977 53.5578308 -15.4407959 52.19026184 C-15.46177934 49.3246613 -15.47348812 46.45917236 -15.48046875 43.59350586 C-15.49142659 39.93470353 -15.5394647 36.27739434 -15.59641266 32.61905956 C-15.63380217 29.7938873 -15.64408364 26.96906973 -15.6471405 24.14367104 C-15.65608051 22.14339042 -15.69330783 20.14330028 -15.7310791 18.14335632 C-15.68146489 7.99396144 -15.68146489 7.99396144 -12.08398438 3.6809082 C-8.20881281 -0.06984584 -5.41171367 -0.36078091 0 0 Z " fill="#A42D26" transform="translate(3146,525)"/>
<path d="M0 0 C3.26778345 1.26643013 6.18283978 2.7815856 8.18205261 5.76248169 C9.22710846 8.62126163 9.26160152 11.00547414 9.2746582 14.05029297 C9.28895622 15.88272049 9.28895622 15.88272049 9.30354309 17.75216675 C9.30263168 19.0688736 9.30172028 20.38558044 9.30078125 21.7421875 C9.30467069 23.11215342 9.30900587 24.48211813 9.31376648 25.8520813 C9.3212214 28.72190257 9.32094314 31.59160081 9.31567383 34.46142578 C9.30988574 38.12883771 9.32679711 41.79574352 9.3500185 45.46307182 C9.36479319 48.29247962 9.3656224 51.12176666 9.36250877 53.95120621 C9.36326811 55.9574735 9.37711374 57.96372213 9.39118958 59.96994019 C9.38496078 61.19786285 9.37873199 62.42578552 9.37231445 63.69091797 C9.37294388 64.76695282 9.3735733 65.84298767 9.3742218 66.95162964 C8.93438291 70.53450969 7.86360202 72.92203728 6 76 C1.69313269 78.93650044 -1.84387817 79.8141245 -7 79 C-10.26678787 76.87626316 -13.24011654 74.51976692 -15 71 C-15.12202452 69.03616678 -15.18017869 67.06824339 -15.20874023 65.10083008 C-15.23767616 63.24298637 -15.23767616 63.24298637 -15.26719666 61.34761047 C-15.28200626 59.98826137 -15.2957793 58.62890063 -15.30859375 57.26953125 C-15.31516558 56.58505102 -15.3217374 55.90057079 -15.32850838 55.19534874 C-15.36110792 51.56929974 -15.38555234 47.94328012 -15.4050293 44.31713867 C-15.4228126 41.32255988 -15.4575803 38.32892816 -15.50756836 35.3347168 C-15.5679378 31.71425599 -15.59852772 28.09467022 -15.60820198 24.47373009 C-15.61673308 23.09782416 -15.63549383 21.72194014 -15.6649456 20.34632301 C-15.90994399 8.24753525 -15.90994399 8.24753525 -12.08618164 3.6628418 C-8.21801224 -0.0597793 -5.39602867 -0.44229743 0 0 Z " fill="#A42C25" transform="translate(3073,525)"/>
<path d="M0 0 C3.56638516 2.20053552 5.46356824 4.13722316 7 8 C7.26742554 10.75643921 7.26742554 10.75643921 7.29052734 13.95849609 C7.3096669 15.76089249 7.3096669 15.76089249 7.32919312 17.59970093 C7.33141876 18.894534 7.33364441 20.18936707 7.3359375 21.5234375 C7.34236841 22.87098328 7.34909699 24.21852768 7.35610962 25.56607056 C7.36807264 28.38880651 7.37179148 31.21142018 7.37060547 34.03417969 C7.37040238 37.64118606 7.39769728 41.24740366 7.43214989 44.85422325 C7.45445074 47.63731446 7.45844205 50.42021682 7.45738602 53.20338821 C7.4608765 55.17645352 7.48252016 57.14945989 7.50448608 59.12240601 C7.46299667 67.26689418 6.78403175 70.94568027 1.25 76.875 C-2.14210957 78.57105479 -5.33682942 78.64105485 -9 78 C-13.03482308 75.90786952 -15.387634 74.24753329 -17 70 C-17.26742554 67.12294006 -17.26742554 67.12294006 -17.29052734 63.75024414 C-17.30328705 62.4853566 -17.31604675 61.22046906 -17.32919312 59.91725159 C-17.33225053 58.53988803 -17.33447842 57.16252242 -17.3359375 55.78515625 C-17.34236716 54.36795416 -17.34909565 52.9507534 -17.35610962 51.53355408 C-17.36807333 48.56538821 -17.37179132 45.59733866 -17.37060547 42.62915039 C-17.37040217 38.83149193 -17.39771811 35.03458093 -17.43214989 31.23709965 C-17.45441902 28.31079197 -17.45844305 25.3846643 -17.45738602 22.45828056 C-17.45974143 21.05847024 -17.46856179 19.65865491 -17.48405075 18.2589283 C-17.50370963 16.29910083 -17.49535042 14.33905338 -17.48583984 12.37915039 C-17.48868988 11.26536514 -17.49153992 10.1515799 -17.49447632 9.00404358 C-16.88755575 5.31687845 -15.55914556 3.67029026 -13 1 C-8.7785484 -1.82544682 -4.7554645 -1.18037422 0 0 Z " fill="#A52D26" transform="translate(3112,526)"/>
<path d="M0 0 C1.98 0 3.96 0 6 0 C6.33 11.22 6.66 22.44 7 34 C10.96 30.04 14.92 26.08 19 22 C20.32 22.33 21.64 22.66 23 23 C23.72680664 24.72729492 23.72680664 24.72729492 24 27 C21.6176823 30.5023656 18.44518448 33.34174795 15.4375 36.3125 C14.62474609 37.16134766 13.81199219 38.01019531 12.97460938 38.88476562 C11.77868164 40.08069336 11.77868164 40.08069336 10.55859375 41.30078125 C9.82954834 42.03466064 9.10050293 42.76854004 8.34936523 43.5246582 C6 45 6 45 0 44 C0 29.48 0 14.96 0 0 Z " fill="#AB3724" transform="translate(3104,636)"/>
<path d="M0 0 C6.93 0 13.86 0 21 0 C21 3.3 21 6.6 21 10 C14.4 10 7.8 10 1 10 C0.67 6.7 0.34 3.4 0 0 Z " fill="#DB4430" transform="translate(2976,1119)"/>
<path d="M0 0 C6.93 0 13.86 0 21 0 C21 3.3 21 6.6 21 10 C14.4 10 7.8 10 1 10 C0.67 6.7 0.34 3.4 0 0 Z " fill="#DB4430" transform="translate(2976,519)"/>
<path d="M0 0 C5.28 0 10.56 0 16 0 C16 2.97 16 5.94 16 9 C10.72 9 5.44 9 0 9 C0 6.03 0 3.06 0 0 Z " fill="#DA3E29" transform="translate(1284,1120)"/>
<path d="M0 0 C5.28 0 10.56 0 16 0 C16 2.97 16 5.94 16 9 C10.72 9 5.44 9 0 9 C0 6.03 0 3.06 0 0 Z " fill="#DA3E29" transform="translate(1284,520)"/>
</svg>
